<svg width="38" height="42" viewBox="0 0 38 42" fill="none" xmlns="http://www.w3.org/2000/svg">
<g clip-path="url(#clip0_209_8473)">
<path d="M13.6487 14.0823H20.7558C21.0218 14.0823 21.2431 13.861 21.2431 13.595C21.2431 13.329 21.0218 13.1077 20.7558 13.1077H13.6487C13.3816 13.1077 13.1614 13.329 13.1614 13.595C13.1614 13.861 13.3827 14.0823 13.6487 14.0823Z" fill="#0C8B51"/>
<path d="M11.3005 16.7881H23.1096C23.3767 16.7881 23.5969 16.5668 23.5969 16.3008C23.5969 16.0348 23.3756 15.8135 23.1096 15.8135H11.3005C11.0334 15.8135 10.8132 16.0348 10.8132 16.3008C10.8132 16.5668 11.0278 16.7881 11.3005 16.7881Z" fill="#0C8B51"/>
<path d="M23.1096 18.5239H11.3005C11.0334 18.5239 10.8132 18.7452 10.8132 19.0112C10.8132 19.2772 11.0345 19.4985 11.3005 19.4985H23.1096C23.3767 19.4985 23.5969 19.2772 23.5969 19.0112C23.5969 18.7452 23.3756 18.5239 23.1096 18.5239Z" fill="#0C8B51"/>
<path d="M23.1096 21.2285H11.3005C11.0334 21.2285 10.8132 21.4498 10.8132 21.7158C10.8132 21.9818 11.0345 22.2031 11.3005 22.2031H23.1096C23.3767 22.2031 23.5969 21.9818 23.5969 21.7158C23.5969 21.4498 23.3756 21.2285 23.1096 21.2285Z" fill="#0C8B51"/>
<mask id="mask0_209_8473" style="mask-type:luminance" maskUnits="userSpaceOnUse" x="0" y="0" width="38" height="42">
<path d="M38 0H0V41.3529H38V0Z" fill="white"/>
</mask>
<g mask="url(#mask0_209_8473)">
<path d="M14.8837 23.9412H11.3005C11.0334 23.9412 10.8132 24.1625 10.8132 24.4285C10.8132 24.6945 11.0345 24.9157 11.3005 24.9157H14.8837C15.1497 24.9157 15.371 24.6945 15.371 24.4285C15.371 24.1625 15.1497 23.9412 14.8837 23.9412Z" fill="#0C8B51"/>
<path d="M37.3317 24.2005C36.3236 21.7092 34.6203 20.2205 33.3585 20.7279C33.2031 20.7928 33.0589 20.8844 32.936 21.0018C31.6619 21.8344 30.3542 22.6212 29.0276 23.3756V9.63529C29.0276 8.02252 27.7144 6.70929 26.1016 6.70929H15.684L14.1037 3.02888L16.0349 1.35799L16.8799 3.32841C16.6787 3.49829 16.5155 3.71176 16.4183 3.96546C16.2562 4.37452 16.2618 4.82382 16.4384 5.22729C16.6139 5.63076 16.9324 5.94258 17.3426 6.10464C17.5382 6.18288 17.7461 6.22199 17.9539 6.22199C18.1752 6.22199 18.3965 6.17617 18.6044 6.08564C19.0079 5.91017 19.3197 5.59164 19.4829 5.18146C19.6461 4.77241 19.6394 4.32311 19.4639 3.91964C19.2884 3.51617 18.9699 3.20435 18.5597 3.04117C18.306 2.94393 18.04 2.91152 17.7796 2.93723L16.6675 0.355465C16.6418 0.296229 16.6094 0.251523 16.5692 0.212406C16.5569 0.198994 16.5368 0.1867 16.5234 0.173288C16.4909 0.147582 16.4652 0.127465 16.4261 0.108465C16.406 0.101759 16.387 0.0950528 16.368 0.088347C16.3289 0.0749352 16.2898 0.0682293 16.2507 0.0682293C16.2305 0.0682293 16.2115 0.0615234 16.1925 0.0615234H16.1668L7.23906 0.926582C7.14071 0.939994 7.04348 0.977994 6.96636 1.04394L0.194534 6.92946C0.0324748 7.06582 -0.0200546 7.29382 0.0648865 7.48829C0.143122 7.67046 0.318592 7.78111 0.514181 7.78111H0.560004L3.76542 7.46929L5.40389 11.2793C5.39047 11.3185 5.37818 11.3643 5.37818 11.4034V32.2386C5.18259 32.2777 4.99483 32.3224 4.79924 32.3615C4.62377 32.3682 4.46171 32.4006 4.31195 32.4599C3.05124 32.9673 2.86236 35.2305 3.86936 37.7206C4.74112 39.8855 6.14489 41.2971 7.32177 41.2971C7.49724 41.2971 7.67271 41.2647 7.83589 41.1988C7.95883 41.1473 8.07618 41.0747 8.20024 40.9775C8.51206 40.7696 8.8373 40.5807 9.15024 40.3784C9.19606 40.3918 9.23406 40.4041 9.281 40.4041H26.0882C27.7009 40.4041 29.0142 39.0909 29.0142 37.4781V31.3724C31.4719 30.6504 33.9687 30.0256 36.4722 29.5518C36.6086 29.5383 36.7449 29.5126 36.869 29.4612C37.5262 29.1941 37.9095 28.4531 37.9554 27.3802C38.0068 26.438 37.7788 25.3058 37.3306 24.2005H37.3317ZM17.3225 4.32199C17.3873 4.15323 17.5181 4.02246 17.6801 3.95093C17.7651 3.91182 17.8556 3.89952 17.9472 3.89952C18.0322 3.89952 18.116 3.91294 18.1942 3.94535C18.363 4.01017 18.4938 4.14093 18.5653 4.30299C18.6368 4.46505 18.6368 4.64723 18.572 4.81599C18.5072 4.98476 18.3764 5.11552 18.2144 5.18705C18.0512 5.25858 17.869 5.25858 17.7002 5.19376C17.5315 5.12894 17.4007 4.99817 17.3292 4.83611C17.2577 4.66735 17.2577 4.48517 17.3225 4.32199ZM28.0519 9.63529V23.9278C27.4014 24.2854 26.7509 24.6296 26.0882 24.9683V13.0687C26.0882 12.8027 25.8669 12.5814 25.6009 12.5814C24.2485 12.5814 23.1499 11.4828 23.1499 10.1304C23.1499 9.86329 22.9286 9.64311 22.6626 9.64311H12.8351C13.8041 9.08429 14.7206 8.43382 15.5599 7.6794H26.1005C27.1801 7.68611 28.0508 8.56346 28.0508 9.6364L28.0519 9.63529ZM21.1985 34.9634C20.2295 35.3535 19.1699 35.3468 18.2077 34.9444C18.2009 34.9444 18.1942 34.9377 18.1887 34.9377C17.2197 34.5275 16.4719 33.7608 16.0752 32.7851C15.2627 30.7689 16.2384 28.4743 18.2535 27.6607C18.7341 27.4651 19.2348 27.3746 19.7232 27.3746C21.2834 27.3746 22.7598 28.3045 23.3779 29.839C24.1904 31.8552 23.2158 34.1498 21.1996 34.9634H21.1985ZM23.9032 33.8838L24.918 34.931L24.1312 35.0148C23.9099 35.0405 23.7277 35.2104 23.702 35.4317L23.5914 36.2185L22.6615 35.2562C23.1555 34.8852 23.5779 34.4236 23.9032 33.8838ZM20.3524 36.185V37.5251L19.7277 37.0378C19.5522 36.9014 19.3052 36.9014 19.1297 37.0378L18.5049 37.5251V36.0676C18.9084 36.1716 19.3175 36.2308 19.7277 36.2308C19.9355 36.2308 20.1434 36.2107 20.3524 36.185ZM21.9909 26.9644C20.7615 26.3273 19.2661 26.2033 17.8813 26.7632C16.5357 27.3098 15.5667 28.3827 15.1051 29.6568C13.1939 30.3006 11.2425 30.8661 9.28547 31.3612V11.1497C9.81189 10.9999 10.326 10.8245 10.8323 10.6166C10.839 10.6166 10.8457 10.6233 10.8524 10.6233H22.2122C22.4268 12.1254 23.6171 13.309 25.1125 13.5236V25.4757C24.0854 25.9965 23.0448 26.4905 21.9909 26.9644ZM1.98277 6.66346L7.49053 1.88329L14.7474 1.18029L9.24636 5.96046L1.98277 6.66235V6.66346ZM9.48665 6.91717C9.585 6.90376 9.68224 6.86576 9.75936 6.79982L13.3291 3.69835L14.7787 7.08035C12.3992 9.16811 9.3883 10.4612 6.2343 10.7541L4.778 7.37317L9.48553 6.91829L9.48665 6.91717ZM6.35277 11.7096C7.01553 11.6448 7.666 11.5476 8.31647 11.4045V31.6015C7.666 31.7569 7.00995 31.9066 6.35277 32.0441V11.7096ZM7.647 40.1716C7.62689 40.1851 7.60789 40.1973 7.59559 40.2108C7.54977 40.2499 7.51065 40.2756 7.48495 40.289C6.95183 40.5036 5.63859 39.4698 4.78024 37.3563C3.92859 35.2428 4.15547 33.5842 4.68189 33.3696C4.72771 33.3495 4.78583 33.3439 4.84506 33.3439C4.87747 33.3439 4.90989 33.3439 4.9423 33.3372C8.27847 32.7002 11.6012 31.8284 14.8458 30.7689C14.7552 31.5557 14.8525 32.3749 15.171 33.1618C15.4828 33.9352 15.9768 34.5991 16.6016 35.1121C13.5124 36.6075 10.5026 38.2985 7.647 40.1716ZM28.0519 37.4736C28.0519 38.5466 27.1745 39.4239 26.1016 39.4239H10.6769C12.8944 38.0906 15.19 36.8556 17.5248 35.7435V38.5265C17.5248 38.7142 17.6287 38.8841 17.7975 38.9612C17.9662 39.0462 18.1618 39.0205 18.3105 38.9098L19.4225 38.0448L20.5346 38.9098C20.6195 38.9746 20.7302 39.0138 20.8341 39.0138C20.9057 39.0138 20.9772 39.0003 21.0487 38.9612C21.2175 38.8774 21.3214 38.7075 21.3214 38.5265V35.9581C21.3997 35.9324 21.4779 35.9067 21.5561 35.8743C21.6332 35.8419 21.7059 35.8028 21.783 35.7703L23.5712 37.6167C23.6618 37.7151 23.7925 37.7665 23.9222 37.7665C23.9747 37.7665 24.0261 37.7598 24.0719 37.7408C24.2474 37.6826 24.3771 37.5329 24.4039 37.344L24.5995 35.9458L26.0044 35.7961C26.1932 35.7759 26.3497 35.653 26.4145 35.4775C26.4794 35.3021 26.4335 35.1065 26.3039 34.9701L24.3458 32.9416C24.3525 32.9159 24.3659 32.8958 24.3715 32.8701C25.5808 32.4275 26.8102 32.0318 28.0452 31.6473V37.4736H28.0519ZM24.6185 31.7636C24.69 30.9969 24.5794 30.2089 24.2798 29.4746C23.9747 28.7269 23.5064 28.0966 22.9342 27.6026C26.1664 26.1329 29.3003 24.4352 32.2978 22.5497C32.2006 23.4986 32.4018 24.7157 32.9159 25.9831C33.4367 27.2639 34.1386 28.2721 34.8729 28.8901C31.4004 29.6188 27.9602 30.58 24.6185 31.7636ZM36.5248 28.5515C35.9916 28.7593 34.6784 27.7322 33.8201 25.6188C32.9673 23.5053 33.1953 21.8467 33.7217 21.6321C33.7675 21.6131 33.8201 21.6064 33.8782 21.6064C34.4761 21.6064 35.6463 22.6402 36.4275 24.5715C36.8243 25.5539 37.0266 26.5419 36.9931 27.3478C36.9741 27.9781 36.7919 28.4464 36.5248 28.5503V28.5515Z" fill="#0C8B51"/>
</g>
<path d="M20.9704 29.202C20.7234 29.098 20.4372 29.2154 20.3333 29.4624L19.2536 32.005L18.5316 31.6999C18.2846 31.596 17.9985 31.7133 17.8946 31.9603C17.7906 32.2073 17.908 32.4934 18.155 32.5974L19.3319 33.0981C19.3967 33.1238 19.4548 33.1372 19.5208 33.1372C19.7096 33.1372 19.8918 33.0265 19.9689 32.8377L21.2375 29.8457C21.3347 29.592 21.2174 29.3059 20.9704 29.202Z" fill="#0C8B51"/>
</g>
<defs>
<clipPath id="clip0_209_8473">
<rect width="38" height="41.3529" fill="white"/>
</clipPath>
</defs>
</svg>
