<svg width="38" height="41" viewBox="0 0 38 41" fill="none" xmlns="http://www.w3.org/2000/svg">
<g clip-path="url(#clip0_209_8465)">
<path d="M37.1662 40.3362C36.8436 40.3362 36.5832 40.0748 36.5832 39.7532C36.5832 38.1027 35.4971 32.2798 33.5208 30.7506C33.2656 30.5535 33.2189 30.1873 33.416 29.9321C33.6131 29.6769 33.9794 29.6302 34.2346 29.8284C36.6922 31.7299 37.7493 38.0166 37.7493 39.7532C37.7493 40.0748 37.4878 40.3362 37.1662 40.3362ZM19.0003 40.3362C18.6777 40.3362 18.4173 40.0748 18.4173 39.7532V36.3236L17.3218 33.5246C17.2046 33.2248 17.3529 32.8856 17.6527 32.7684C17.9525 32.6512 18.2918 32.7985 18.409 33.0993L19.0034 34.6191L21.182 29.1074C21.2318 28.9819 21.322 28.8781 21.4392 28.8128C22.0119 28.4922 22.8086 27.5959 23.1271 26.2452C21.8635 27.015 20.4516 27.46 19.0013 27.46C17.5511 27.46 16.1485 27.017 14.888 26.2525C15.2273 27.5762 16.0551 28.4269 16.5894 28.765C16.6952 28.8314 16.7761 28.93 16.8218 29.0462L17.6226 31.0919C17.7399 31.3918 17.5915 31.731 17.2917 31.8482C16.9919 31.9654 16.6527 31.8181 16.5354 31.5173L16.1848 30.6241L14.6619 33.3587C14.555 33.5516 14.3476 33.6657 14.1276 33.6574C13.9077 33.6481 13.7116 33.5163 13.6203 33.3161C13.5674 33.1999 12.3236 30.4301 12.3236 27.9517C12.3236 27.875 12.3257 27.7982 12.3277 27.7235C11.8796 27.9569 11.2986 28.2121 10.5725 28.4435L10.3442 28.5161C10.422 28.7516 10.4625 28.9995 10.4625 29.2547V32.093C11.3764 32.3845 12.0186 33.2445 12.0186 34.2176V39.7542C12.0186 40.0758 11.7572 40.3373 11.4356 40.3373C11.114 40.3373 10.8526 40.0758 10.8526 39.7542V38.1774L6.92184 38.776C6.60439 38.8237 6.30562 38.6058 6.25686 38.2874C6.2081 37.9689 6.427 37.6711 6.74548 37.6224L10.8515 36.9979V35.5331L6.9208 36.1316C6.60335 36.1794 6.30458 35.9615 6.25582 35.643C6.20707 35.3245 6.42596 35.0268 6.74444 34.9781L10.8505 34.3535V34.2197C10.8505 33.7207 10.4936 33.2829 10.0029 33.1802C8.25593 32.814 6.52659 33.5101 5.65206 33.9572C5.30038 34.1367 5.08148 34.4977 5.08148 34.8982V39.7563C5.08148 40.0779 4.82006 40.3393 4.49847 40.3393C4.17687 40.3393 3.91545 40.0779 3.91545 39.7563V34.8982C3.91545 34.0579 4.37709 33.2995 5.12091 32.9188C5.32735 32.813 5.55247 32.7061 5.79314 32.6034V30.0836C5.01509 30.4052 4.64889 30.621 4.47668 30.7537C2.50043 32.2829 1.41531 38.1048 1.41531 39.7563C1.41531 40.0779 1.15388 40.3393 0.832287 40.3393C0.510693 40.3393 0.249268 40.0779 0.249268 39.7563C0.249268 38.0197 1.30742 31.7331 3.76398 29.8315C4.15094 29.5317 4.81384 29.2049 5.83671 28.8107C5.89896 28.4901 6.02656 28.1893 6.21225 27.9237C6.17594 27.8418 6.15208 27.7536 6.14067 27.6602L5.74646 24.2741C5.71534 24.0127 5.79833 23.7492 5.97365 23.5521C6.14897 23.356 6.40002 23.243 6.66352 23.243H7.54324V23.1403C7.54324 22.8187 7.80466 22.5572 8.12626 22.5572C8.44785 22.5572 8.70928 22.8187 8.70928 23.1403V23.243H9.589C9.8525 23.243 10.1046 23.356 10.2799 23.5521C10.4552 23.7492 10.5382 24.0117 10.5071 24.2741L10.1482 27.3573L10.2156 27.3355C11.5922 26.8967 12.3537 26.3801 12.6182 26.1757C12.7033 25.9464 12.807 25.7296 12.9284 25.5232C13.0435 25.3302 13.1618 25.1684 13.2749 25.0346C11.6047 23.4774 10.3774 21.3103 9.96142 18.944C9.2508 18.806 8.61488 18.3775 8.13248 17.7032C7.58992 16.9428 7.29011 15.9303 7.29011 14.8535C7.29011 12.7642 8.51736 12.0048 9.34313 12.0048C9.50497 12.0048 9.66161 12.0286 9.80892 12.0722V5.59572C9.80892 4.44939 10.5994 3.29995 12.0362 2.36006C12.306 2.1837 12.668 2.25943 12.8444 2.52916C13.0207 2.79888 12.945 3.16094 12.6763 3.33729C11.5964 4.04376 10.977 4.86746 10.977 5.59572V8.50563C11.0725 8.39152 11.1679 8.28466 11.2623 8.17989C11.7551 7.6311 12.1441 7.19747 12.1441 5.59572C12.1441 5.44011 12.2064 5.28968 12.3184 5.17972C12.3827 5.1154 13.9399 3.61532 16.6859 3.61532C18.5646 3.61532 20.4713 4.64753 22.0036 5.47642C22.7329 5.87167 23.5597 6.31879 23.8823 6.32916C24.0639 6.27729 24.4954 5.77726 24.76 5.30836C24.8907 5.07702 25.1604 4.96394 25.4166 5.03137C25.6729 5.0988 25.8523 5.33014 25.8523 5.59572C25.8523 7.31054 26.3098 7.91431 26.841 8.61352C26.9001 8.69132 26.9593 8.77017 27.0194 8.85108V5.59572C27.0194 3.81657 23.4414 1.66708 18.9982 1.66708C17.6164 1.66708 16.2304 1.87559 14.9887 2.26981C14.6816 2.36836 14.3538 2.19719 14.2563 1.89012C14.1587 1.58305 14.3289 1.25523 14.636 1.15771C15.9898 0.727191 17.4981 0.5 18.9982 0.5C21.3324 0.5 23.5929 1.03426 25.3627 2.00423C27.1574 2.98769 28.1855 4.29689 28.1855 5.59572V12.067C28.3328 12.0235 28.4894 11.9996 28.6513 11.9996C29.476 11.9996 30.7043 12.7579 30.7043 14.8483C30.7043 15.9262 30.4055 16.9376 29.8619 17.698C29.3795 18.3724 28.7425 18.8008 28.033 18.9388C27.618 21.3061 26.3897 23.4753 24.7185 25.0314C24.9384 25.2929 25.1853 25.6653 25.3731 26.1674C25.6335 26.3676 26.398 26.8905 27.7798 27.3303L28.1388 27.4444C29.4127 27.849 30.8557 28.3086 32.0508 28.764C32.3517 28.8792 32.5031 29.2163 32.388 29.5172C32.2728 29.818 31.9357 29.9695 31.6348 29.8543C30.4698 29.4103 29.0434 28.957 27.784 28.5565L27.424 28.4414C26.6989 28.21 26.1169 27.9538 25.6687 27.7204C25.6718 27.7951 25.6729 27.8718 25.6729 27.9497C25.6729 30.428 24.429 33.1968 24.3761 33.3141C24.2859 33.5143 24.0898 33.646 23.8709 33.6554C23.651 33.6678 23.4456 33.5516 23.3377 33.3597L21.8148 30.6697L19.5812 36.3225V39.7511C19.5812 40.0727 19.3198 40.3342 18.9982 40.3342L19.0003 40.3362ZM7.26314 28.4725C7.07018 28.6852 6.96333 28.9611 6.96333 29.2537V32.1885C7.6781 31.9903 8.47068 31.869 9.29749 31.9115V29.2537C9.29749 28.9611 9.1896 28.6852 8.99768 28.4725H7.26418H7.26314ZM22.4932 29.4954L23.7506 31.7175C24.0919 30.7403 24.5099 29.2734 24.5099 27.9517C24.5099 27.3542 24.4041 26.8842 24.262 26.5232C24.1199 27.127 23.8906 27.6965 23.5804 28.2121C23.2744 28.7194 22.8947 29.1665 22.4943 29.4964L22.4932 29.4954ZM13.7469 26.5077C13.6017 26.8708 13.4917 27.3459 13.4917 27.9517C13.4917 29.2682 13.9067 30.7289 14.2469 31.7071L15.5188 29.4228C14.7947 28.8128 14.0726 27.82 13.7469 26.5077ZM7.2787 27.3065H8.98315L9.32135 24.4059H6.94051L7.2787 27.3065ZM10.9812 16.8495V17.1908C10.9812 19.4554 11.8837 21.7698 13.4564 23.5397C15.0125 25.2898 17.0334 26.2929 19.0013 26.2929C20.9693 26.2929 22.9902 25.2887 24.5463 23.5397C26.119 21.7698 27.0215 19.4554 27.0215 17.1908V16.8495C26.2808 17.531 25.2247 17.9211 23.9601 17.9211C22.9528 17.9211 22.0938 17.7105 21.4019 17.3038C21.322 18.0051 20.8023 18.5093 19.7918 18.9077C19.2814 19.11 18.7192 19.11 18.2088 18.9077C17.1983 18.5083 16.6786 18.0051 16.5987 17.3038C15.9068 17.7105 15.0478 17.9211 14.0405 17.9211C12.7769 17.9211 11.7198 17.531 10.9791 16.8495H10.9812ZM19.0013 14.1346C18.9204 14.1346 18.6486 14.1564 18.5573 14.4375L17.8446 16.6482C17.6859 17.141 17.5977 17.4128 18.6383 17.8236C18.8758 17.918 19.1269 17.918 19.3644 17.8236C20.4039 17.4128 20.3168 17.141 20.158 16.6482L19.4453 14.4375C19.3541 14.1564 19.0823 14.1346 19.0013 14.1346ZM28.1886 13.6335V17.1908C28.1886 17.3505 28.1855 17.5103 28.1772 17.669C28.978 17.2789 29.5393 16.1783 29.5393 14.8493C29.5393 13.5204 28.8836 13.1677 28.6533 13.1677C28.3971 13.1677 28.1875 13.3762 28.1875 13.6335H28.1886ZM9.34832 13.1677C9.11905 13.1677 8.46238 13.4769 8.46238 14.8493C8.46238 16.2218 9.02465 17.2789 9.82449 17.669C9.81722 17.5103 9.81308 17.3505 9.81308 17.1908V13.6335C9.81308 13.3762 9.60352 13.1677 9.34728 13.1677H9.34832ZM23.9612 11.8554C22.4953 11.8554 21.4154 12.1708 20.9226 12.7445C20.6467 13.065 20.5502 13.4789 20.6301 14.007C20.905 15.8307 22.0254 16.755 23.9612 16.755C25.897 16.755 27.0225 15.7104 27.0225 14.0288C27.0225 12.1033 25.3876 11.8564 23.9612 11.8564V11.8554ZM10.9812 14.0277C10.9812 15.7093 12.1535 16.754 14.0426 16.754C15.9317 16.754 17.0987 15.8297 17.3737 14.0059C17.4535 13.4769 17.3581 13.064 17.0811 12.7434C16.5883 12.1708 15.5084 11.8544 14.0426 11.8544C11.3287 11.8544 10.9812 13.0152 10.9812 14.0267V14.0277ZM14.0426 10.6883C15.3238 10.6883 17.0448 10.9124 17.966 11.983C18.2326 12.2932 18.4121 12.6469 18.5013 13.0412C18.8167 12.9457 19.1881 12.9457 19.5034 13.0412C19.5927 12.6469 19.7721 12.2932 20.0387 11.983C20.96 10.9134 22.681 10.6883 23.9622 10.6883C25.316 10.6883 26.2559 10.9612 26.898 11.3834C26.7964 10.8408 26.6377 10.4414 26.452 10.1063C26.3804 10.0918 26.3109 10.0638 26.2455 10.0213C25.7413 9.68931 24.9726 9.52125 23.9622 9.52125C22.7318 9.52125 21.7442 9.75259 21.1799 10.1727C20.9216 10.3657 20.5554 10.3117 20.3635 10.0545C20.1705 9.79616 20.2244 9.42995 20.4828 9.237C21.4621 8.50667 22.9144 8.35417 23.9622 8.35417C24.4643 8.35417 24.9187 8.39048 25.3285 8.4631C25.1231 8.09897 24.9425 7.66533 24.8264 7.09788C24.5504 7.33129 24.234 7.49727 23.8979 7.49727C23.2879 7.49727 22.5181 7.08024 21.4527 6.50448C20.0367 5.73784 18.2741 4.78343 16.691 4.78343C14.8922 4.78343 13.7313 5.54074 13.3133 5.86855C13.2749 7.25971 12.9377 7.96307 12.5352 8.49111C12.9813 8.39981 13.4824 8.35521 14.0436 8.35521C15.0903 8.35521 16.5437 8.50874 17.523 9.23804C17.7814 9.43099 17.8343 9.79616 17.6423 10.0545C17.4494 10.3128 17.0842 10.3667 16.8249 10.1738C16.2616 9.75362 15.2729 9.52228 14.0436 9.52228C13.0321 9.52228 12.2645 9.69034 11.7603 10.0223C11.6399 10.1012 11.502 10.1302 11.3702 10.1146C11.2395 10.4445 11.1316 10.8595 11.0631 11.4135C11.7074 10.9746 12.6587 10.6894 14.0436 10.6894L14.0426 10.6883ZM19.0024 22.5085C17.633 22.5085 16.3383 22.1049 15.358 21.3736C15.0997 21.1806 15.0468 20.8144 15.2397 20.5561C15.4327 20.2988 15.7978 20.2449 16.0572 20.4378C17.6818 21.6505 20.3251 21.6505 21.9496 20.4378C22.208 20.2449 22.5742 20.2978 22.7671 20.5561C22.9601 20.8144 22.9072 21.1806 22.6488 21.3736C21.6685 22.1049 20.3738 22.5085 19.0045 22.5085H19.0024ZM22.7101 15.3919C22.3874 15.3919 22.127 15.1305 22.127 14.8089V13.6304C22.127 13.3088 22.3885 13.0474 22.7101 13.0474C23.0316 13.0474 23.2941 13.3088 23.2941 13.6304V14.8089C23.2941 15.1305 23.0327 15.3919 22.7101 15.3919ZM15.2947 15.3919C14.9721 15.3919 14.7117 15.1305 14.7117 14.8089V13.6304C14.7117 13.3088 14.9731 13.0474 15.2947 13.0474C15.6163 13.0474 15.8777 13.3088 15.8777 13.6304V14.8089C15.8777 15.1305 15.6163 15.3919 15.2947 15.3919Z" fill="#0C8B51"/>
</g>
<defs>
<clipPath id="clip0_209_8465">
<rect width="37.5" height="39.8362" fill="white" transform="translate(0.25 0.5)"/>
</clipPath>
</defs>
</svg>
